<?xml version="1.0" encoding="utf-8"?>
<!-- Generator: Adobe Illustrator 16.0.0, SVG Export Plug-In . SVG Version: 6.00 Build 0)  -->
<!DOCTYPE svg PUBLIC "-//W3C//DTD SVG 1.1//EN" "http://www.w3.org/Graphics/SVG/1.1/DTD/svg11.dtd">
<svg version="1.1" id="Layer_1" xmlns="http://www.w3.org/2000/svg" xmlns:xlink="http://www.w3.org/1999/xlink" x="0px" y="0px"
	 width="612px" height="792px" viewBox="0 0 612 792" enable-background="new 0 0 612 792" xml:space="preserve">
<path fill="#D1D3D4" d="M568.214,367.461c-13.065,0-24.015,8.935-27.151,21.018H333.151c-3.138-12.083-14.087-21.018-27.151-21.018
	c-13.065,0-24.014,8.935-27.151,21.018H70.939c-3.137-12.083-14.087-21.018-27.151-21.018c-15.511,0-28.084,12.574-28.084,28.084
	c0,15.511,12.573,28.084,28.084,28.084c13.065,0,24.014-8.935,27.151-21.018h207.91c3.138,12.083,14.087,21.018,27.151,21.018
	c13.065,0,24.014-8.935,27.151-21.018h207.909c3.138,12.083,14.088,21.018,27.151,21.018c15.511,0,28.084-12.573,28.084-28.084
	C596.296,380.035,583.723,367.461,568.214,367.461z"/>
<circle fill="none" stroke="#0EA5B3" stroke-width="1.5" stroke-miterlimit="10" cx="43.788" cy="395.545" r="20.698"/>
<circle fill="none" stroke="#0EA5B3" stroke-width="1.5" stroke-miterlimit="10" cx="306" cy="395.545" r="20.698"/>
<circle fill="none" stroke="#0EA5B3" stroke-width="1.5" stroke-miterlimit="10" cx="568.214" cy="395.545" r="20.698"/>
<path fill="none" stroke="#0EA5B3" stroke-width="1.5" stroke-miterlimit="10" d="M64.486,395.545h220.815 M326.698,395.545h220.816
	"/>
<path fill="#0EA5B3" stroke="#0DA5B3" stroke-miterlimit="10" d="M53.975,390.787c0,0.351-0.123,0.648-0.367,0.893l-9.517,9.517
	l-1.788,1.788c-0.246,0.246-0.543,0.367-0.893,0.367c-0.351,0-0.649-0.123-0.894-0.367l-1.788-1.788l-4.758-4.758
	c-0.246-0.246-0.368-0.543-0.368-0.894s0.123-0.648,0.368-0.893l1.788-1.788c0.246-0.246,0.543-0.368,0.893-0.368
	c0.351,0,0.649,0.123,0.894,0.368l3.864,3.878l8.622-8.635c0.246-0.246,0.542-0.367,0.893-0.367s0.649,0.123,0.893,0.367
	l1.788,1.788C53.852,390.138,53.975,390.436,53.975,390.787z M316.187,390.787c0,0.351-0.123,0.648-0.367,0.893l-9.517,9.517
	l-1.788,1.788c-0.246,0.246-0.542,0.367-0.893,0.367s-0.649-0.123-0.893-0.367l-1.788-1.788l-4.758-4.758
	c-0.246-0.246-0.367-0.543-0.367-0.894s0.123-0.648,0.367-0.893l1.788-1.788c0.246-0.246,0.543-0.368,0.894-0.368
	s0.648,0.123,0.893,0.368l3.864,3.878l8.622-8.635c0.246-0.246,0.543-0.367,0.894-0.367s0.648,0.123,0.893,0.367l1.788,1.788
	C316.063,390.138,316.187,390.436,316.187,390.787z M578.4,390.787c0,0.351-0.123,0.648-0.368,0.893l-9.517,9.517l-1.787,1.788
	c-0.246,0.246-0.543,0.367-0.894,0.367s-0.648-0.123-0.894-0.367l-1.787-1.788l-4.759-4.758c-0.246-0.246-0.367-0.543-0.367-0.894
	s0.123-0.648,0.367-0.893l1.788-1.788c0.246-0.246,0.543-0.368,0.893-0.368c0.351,0,0.649,0.123,0.894,0.368l3.864,3.878
	l8.622-8.635c0.245-0.246,0.542-0.367,0.893-0.367s0.649,0.123,0.894,0.367l1.788,1.788
	C578.277,390.138,578.4,390.436,578.4,390.787L578.4,390.787z"/>
</svg>
